<svg width="411" height="417" viewBox="0 0 411 417" fill="none" xmlns="http://www.w3.org/2000/svg">
<path d="M344.804 88.7325C312.855 37.8847 256.346 62.4024 212.738 44.1003C159.026 21.5527 130.44 8.19557 81.3975 58.3834C13.675 127.642 -25.8762 288.44 49.6162 370.07C108.007 433.221 233.761 428.286 298.487 381.152C382.028 320.326 404.486 183.789 344.804 88.7325Z" fill="#2271AF"/>
<path d="M110.811 296.232C115.115 283.111 108.086 221.753 79.3092 195.265C70.1207 186.813 59.7607 179.219 53.9989 166.994C51.1141 160.877 49.7115 153.864 47.2171 147.49C44.7228 141.117 40.6186 135.01 35.0003 133.641C25.8437 131.395 17.6912 143.491 17.6434 155.016C17.5956 166.541 23.0545 176.894 28.609 186.193C34.1636 195.491 40.2361 204.977 41.7423 216.364C43.4636 229.367 39.8616 245.748 48.4046 253.609C55.8717 260.504 68.2399 255.323 74.4958 263.843C78.4804 269.281 77.8827 277.575 78.9904 284.795C80.0981 292.016 85.8121 299.847 91.0478 296.36L110.811 296.232Z" fill="#3FDD18"/>
<path d="M103.424 263.784C89.3106 263.784 75.6354 250.979 71.9855 234.056C71.5711 232.086 71.2683 230.116 70.9734 228.145C70.595 225.047 69.9622 222.004 69.0847 219.063C66.5505 211.37 60.8685 206.09 55.3617 200.958C53.4969 199.215 51.5684 197.412 49.7833 195.531C40.057 185.277 33.3143 171.369 30.5854 155.932L32.4423 155.44C35.078 170.369 41.597 183.821 51.0026 193.738C52.7558 195.58 54.6605 197.363 56.5093 199.087C62.2153 204.406 68.1125 209.922 70.8539 218.206C71.779 221.293 72.4465 224.488 72.8462 227.742C73.1331 229.633 73.428 231.593 73.8344 233.455C77.3408 249.718 90.769 262.021 104.356 261.42L104.42 263.765L103.424 263.784Z" fill="#DCDBDB"/>
<path d="M87.717 293.434C94.7857 289.769 96.1644 277.141 92.2356 269.015C88.3067 260.888 80.9432 256.386 73.8187 252.909C66.6942 249.432 59.1314 246.329 53.6566 239.71C48.4128 233.356 45.7352 224.56 42.8822 216.197C40.0292 207.834 36.5865 199.224 30.4821 194.181C24.3777 189.138 14.8863 189.256 10.7663 196.811C5.61814 206.179 11.8023 218.817 18.9188 225.939C26.0353 233.061 34.9847 239.434 37.0806 250.456C38.5948 258.425 35.9968 266.917 37.4791 274.885C39.1367 283.82 45.4961 290.144 51.8237 294.911C58.1512 299.679 65.1163 303.865 69.5153 311.253C73.9143 318.641 74.5041 330.55 68.5032 335.928L87.717 293.434Z" fill="#499F21"/>
<path d="M80.3295 296.359C79.6043 288.253 72.1371 283.741 68.9574 282.185C67.5947 281.515 66.1602 280.894 64.7736 280.293C60.4383 278.422 55.9596 276.491 52.4851 272.561C49.8951 269.606 49.2974 265.173 48.7714 260.868C48.5537 258.544 48.1342 256.255 47.5202 254.042C45.2079 247.216 42.5296 240.588 39.5032 234.203C36.4312 227.733 33.718 221.013 31.3826 214.089L33.1438 213.232C35.457 220.048 38.1353 226.665 41.1608 233.041C44.2297 239.513 46.9427 246.233 49.2814 253.156C49.9483 255.524 50.4078 257.975 50.6521 260.465C51.1701 264.562 51.6642 268.424 53.7681 270.798C56.9558 274.403 61.052 276.176 65.4032 278.048C66.8057 278.658 68.2641 279.279 69.6587 279.968C77.0542 283.613 81.6125 289.474 82.2102 296.074L80.3295 296.359Z" fill="#C9C9C9"/>
<path d="M265.39 0H128.328C114.842 0 103.91 13.5128 103.91 30.1817V340.351C103.91 357.02 114.842 370.533 128.328 370.533H265.39C278.876 370.533 289.808 357.02 289.808 340.351V30.1817C289.808 13.5128 278.876 0 265.39 0Z" fill="#78479A"/>
<path d="M276.771 337.77V43.4993C276.771 34.3053 270.741 26.8521 263.303 26.8521L130.416 26.8521C122.978 26.8521 116.948 34.3053 116.948 43.4993L116.948 337.77C116.948 346.964 122.978 354.418 130.416 354.418H263.303C270.741 354.418 276.771 346.964 276.771 337.77Z" fill="#DDDCEE"/>
<path d="M257.269 311.411H138.847C133.068 311.411 128.383 317.201 128.383 324.344V329.28C128.383 336.423 133.068 342.213 138.847 342.213H257.269C263.048 342.213 267.733 336.423 267.733 329.28V324.344C267.733 317.201 263.048 311.411 257.269 311.411Z" fill="#CAC8E4"/>
<path d="M227.051 9.00323H166.66C164.755 9.00323 163.21 10.9128 163.21 13.2685V14.8938C163.21 17.2494 164.755 19.159 166.66 19.159H227.051C228.957 19.159 230.502 17.2494 230.502 14.8938V13.2685C230.502 10.9128 228.957 9.00323 227.051 9.00323Z" fill="white"/>
<path d="M310.416 336.47C313.87 312.394 310.15 287.587 299.945 266.641C295.761 258.14 290.493 250.26 288.055 240.774C285.616 231.288 286.971 219.29 293.769 213.971C301.347 208.06 311.986 213.586 316.959 222.836C321.932 232.086 322.737 243.65 323.39 254.702L340.006 172.717C341.433 165.664 342.923 158.444 346.278 152.484C349.633 146.525 355.307 141.984 361.14 142.87C368.369 143.974 373.397 153.056 374.146 162.01C374.895 170.964 372.393 179.79 369.93 188.251C363.555 210.145 357.18 232.04 350.804 253.934C353.17 244.152 357.193 235.104 362.607 227.393C368.021 219.682 374.701 213.485 382.203 209.213C391.4 204.061 404.461 203.46 409.402 214.335C413.283 222.866 409.609 234.085 403.584 240.419C397.56 246.753 389.718 249.639 382.418 253.422C369.409 260.237 357.633 270.195 347.779 282.713C337.926 295.23 330.195 310.054 325.04 326.315L310.416 336.47Z" fill="#3FDD18"/>
<path d="M317.478 306.594L316.131 304.949C327.943 289.832 336.207 271.03 340.039 250.555C341.457 243 342.262 235.149 343.051 227.554C343.657 221.742 344.278 215.734 345.163 209.823C347.697 193.078 352.192 180.794 358.91 172.126L360.281 173.751C353.825 182.075 349.49 194.014 347.028 210.257C346.151 216.069 345.53 222.077 344.932 227.84C344.135 235.484 343.338 243.394 341.888 251.067C337.983 271.973 329.544 291.169 317.478 306.594V306.594Z" fill="#DCDBDB"/>
<path d="M326.857 292.528L325.542 290.833L346.485 265.912L367.683 240.685C376.083 230.677 384.499 221.614 395.05 220.58L395.193 222.915C385.272 223.9 377.143 232.676 369.006 242.369L347.808 267.596L326.857 292.528Z" fill="#DCDBDB"/>
<path d="M306.209 315.193C306.345 311.125 306.377 306.899 307.843 303.255C309.309 299.61 312.744 296.813 315.868 298.103C320.012 299.807 320.61 306.643 320.45 312.041L337.09 294.163C340.158 290.863 343.322 287.494 347.163 285.859C351.004 284.224 355.722 284.716 358.503 288.381C361.284 292.045 361.324 298.3 359.3 302.821C357.276 307.343 353.722 310.465 349.944 312.751C346.518 314.839 342.732 316.484 340.238 320.06C337.743 323.635 337.401 330.008 340.588 332.53C344.27 335.347 349.649 331.328 353.236 334.333C356.184 336.815 355.762 342.735 353.331 345.956C350.901 349.177 347.243 350.379 343.768 351.443L321.151 358.407C316.992 359.688 304.416 366.544 300.615 363.52C296.813 360.495 302.296 347.513 303.181 342.725C304.88 333.684 305.893 324.467 306.209 315.193Z" fill="#1AAA20"/>
<path d="M65.6502 352.96C66.0691 340.133 63.9638 327.372 59.5152 315.773C55.0665 304.173 48.4072 294.08 40.1089 286.361C34.132 280.914 27.406 276.797 21.5406 271.172C15.6753 265.547 10.5351 257.894 9.58679 248.792C0.980039 260.563 -1.57011 277.851 0.892378 293.424C3.35487 308.998 10.2164 323.034 18.4247 335.21C33.0099 356.733 51.8509 373.228 73.1174 383.092L65.6502 352.96Z" fill="#3FDD18"/>
<path d="M83.0392 394.519C81.6845 368.405 69.3401 345.07 55.147 325.665C47.5921 315.341 38.8021 303.757 39.8461 289.898C35.0026 297.427 31.8754 306.421 30.7881 315.946C29.7008 325.471 30.693 335.183 33.662 344.075C40.8741 364.918 57.7848 377.566 73.6754 388.934L83.0392 394.519Z" fill="#309B15"/>
<path d="M195.038 44.376H52.3255C45.2879 44.376 39.5828 51.4279 39.5828 60.1268V133.995C39.5828 142.694 45.2879 149.746 52.3255 149.746H195.038C202.076 149.746 207.781 142.694 207.781 133.995V60.1268C207.781 51.4279 202.076 44.376 195.038 44.376Z" fill="white"/>
<path d="M107.608 101.735H61.9124C60.143 101.735 58.7087 103.508 58.7087 105.695V107.202C58.7087 109.389 60.143 111.162 61.9124 111.162H107.608C109.377 111.162 110.811 109.389 110.811 107.202V105.695C110.811 103.508 109.377 101.735 107.608 101.735Z" fill="#2196F3"/>
<path d="M185.268 101.735H119.977C118.207 101.735 116.773 103.508 116.773 105.695V107.202C116.773 109.389 118.207 111.162 119.977 111.162H185.268C187.038 111.162 188.472 109.389 188.472 107.202V105.695C188.472 103.508 187.038 101.735 185.268 101.735Z" fill="#2196F3"/>
<path d="M98.9134 119.072H61.9124C60.143 119.072 58.7087 120.845 58.7087 123.032V124.539C58.7087 126.726 60.143 128.499 61.9124 128.499H98.9134C100.683 128.499 102.117 126.726 102.117 124.539V123.032C102.117 120.845 100.683 119.072 98.9134 119.072Z" fill="#2196F3"/>
<path d="M159.201 119.072H111.29C109.521 119.072 108.087 120.845 108.087 123.032V124.539C108.087 126.726 109.521 128.499 111.29 128.499H159.201C160.971 128.499 162.405 126.726 162.405 124.539V123.032C162.405 120.845 160.971 119.072 159.201 119.072Z" fill="#2196F3"/>
<path d="M83.756 84.4083H61.9124C60.143 84.4083 58.7087 86.1812 58.7087 88.3681V89.8752C58.7087 92.0622 60.143 93.8351 61.9124 93.8351H83.756C85.5253 93.8351 86.9596 92.0622 86.9596 89.8752V88.3681C86.9596 86.1812 85.5253 84.4083 83.756 84.4083Z" fill="#2196F3"/>
<path d="M128.528 84.4083H96.125C94.3557 84.4083 92.9214 86.1812 92.9214 88.3681V89.8752C92.9214 92.0622 94.3557 93.8351 96.125 93.8351H128.528C130.297 93.8351 131.731 92.0622 131.731 89.8752V88.3681C131.731 86.1812 130.297 84.4083 128.528 84.4083Z" fill="#2196F3"/>
<path d="M87 66C100.807 66 112 54.8071 112 41C112 27.1929 100.807 16 87 16C73.1929 16 62 27.1929 62 41C62 54.8071 73.1929 66 87 66Z" fill="white"/>
<path d="M86.5 46C92.8513 46 98 40.8513 98 34.5C98 28.1487 92.8513 23 86.5 23C80.1487 23 75 28.1487 75 34.5C75 40.8513 80.1487 46 86.5 46Z" fill="#2196F3"/>
<path d="M86.9956 48C79.5428 47.9862 72.3751 50.9074 67 56.1494C69.3834 59.2196 72.4214 61.7012 75.8855 63.4074C79.3497 65.1136 83.1498 66 87 66C90.8502 66 94.6503 65.1136 98.1145 63.4074C101.579 61.7012 104.617 59.2196 107 56.1494C101.62 50.9101 94.4504 47.9895 86.9956 48V48Z" fill="#2196F3"/>
<path d="M182.798 136.694V180.726C182.798 181.591 182.59 182.436 182.202 183.156C181.813 183.875 181.26 184.436 180.614 184.767C179.967 185.098 179.255 185.185 178.569 185.016C177.882 184.847 177.252 184.43 176.757 183.819L139.899 138.26L182.798 136.694Z" fill="white"/>
<path d="M162.803 301.196H305.516C312.554 301.196 318.259 294.144 318.259 285.445V211.577C318.259 202.878 312.554 195.826 305.516 195.826L162.803 195.826C155.766 195.826 150.06 202.878 150.06 211.577V285.445C150.06 294.144 155.766 301.196 162.803 301.196Z" fill="#27C6E9"/>
<path d="M218.261 253.195H172.566C170.796 253.195 169.362 254.968 169.362 257.155V258.662C169.362 260.849 170.796 262.622 172.566 262.622H218.261C220.03 262.622 221.465 260.849 221.465 258.662V257.155C221.465 254.968 220.03 253.195 218.261 253.195Z" fill="white"/>
<path d="M295.921 253.195H230.629C228.86 253.195 227.425 254.968 227.425 257.155V258.662C227.425 260.849 228.86 262.622 230.629 262.622H295.921C297.69 262.622 299.124 260.849 299.124 258.662V257.155C299.124 254.968 297.69 253.195 295.921 253.195Z" fill="white"/>
<path d="M209.567 270.532H172.566C170.796 270.532 169.362 272.305 169.362 274.492V275.999C169.362 278.186 170.796 279.959 172.566 279.959H209.567C211.336 279.959 212.77 278.186 212.77 275.999V274.492C212.77 272.305 211.336 270.532 209.567 270.532Z" fill="white"/>
<path d="M269.846 270.532H221.935C220.166 270.532 218.731 272.305 218.731 274.492V275.999C218.731 278.186 220.166 279.959 221.935 279.959H269.846C271.615 279.959 273.049 278.186 273.049 275.999V274.492C273.049 272.305 271.615 270.532 269.846 270.532Z" fill="white"/>
<path d="M194.409 235.858H172.566C170.796 235.858 169.362 237.631 169.362 239.818V241.325C169.362 243.512 170.796 245.285 172.566 245.285H194.409C196.179 245.285 197.613 243.512 197.613 241.325V239.818C197.613 237.631 196.179 235.858 194.409 235.858Z" fill="white"/>
<path d="M239.18 235.858H206.777C205.008 235.858 203.573 237.631 203.573 239.818V241.325C203.573 243.512 205.008 245.285 206.777 245.285H239.18C240.949 245.285 242.384 243.512 242.384 241.325V239.818C242.384 237.631 240.949 235.858 239.18 235.858Z" fill="white"/>
<path d="M276.5 220C291.136 220 303 208.136 303 193.5C303 178.864 291.136 167 276.5 167C261.864 167 250 178.864 250 193.5C250 208.136 261.864 220 276.5 220Z" fill="#27C6E9"/>
<path d="M276 199C282.627 199 288 193.627 288 187C288 180.373 282.627 175 276 175C269.373 175 264 180.373 264 187C264 193.627 269.373 199 276 199Z" fill="white"/>
<path d="M275.995 202C283.823 201.989 291.351 204.91 297 210.149C294.497 213.22 291.308 215.701 287.67 217.407C284.033 219.114 280.043 220 276 220C271.957 220 267.967 219.114 264.33 217.407C260.692 215.701 257.503 213.22 255 210.149C260.644 204.907 268.17 201.986 275.995 202V202Z" fill="white"/>
<path d="M175.044 288.203V332.235C175.045 333.099 175.254 333.943 175.643 334.661C176.033 335.379 176.585 335.938 177.232 336.268C177.878 336.598 178.589 336.684 179.275 336.515C179.96 336.346 180.59 335.929 181.085 335.318L217.942 289.76L175.044 288.203Z" fill="#27C6E9"/>
</svg>
