<svg width="371" height="324" viewBox="0 0 371 324" fill="none" xmlns="http://www.w3.org/2000/svg">
<path d="M338.997 67.0066C335.01 61.8284 330.238 57.3049 324.855 53.5999V93.7835H305.735V131.433H281.455V40.1747C272.657 39.3299 263.63 39.0177 254.631 38.5677L228.661 61.1481V133.251H193.765V70.9093H150.108V47.0342L123.725 33.2601V19.8258C120.362 20.9049 117.071 22.1962 113.871 23.6917V28.0811L109.555 25.8221C105.348 28.033 101.274 30.4858 97.3507 33.1683V66.9607H60.7099C34.4093 99.2013 16.0981 142.966 13.8757 185.335C14.794 212.048 18.4673 235.161 25.3914 250.101C25.4465 250.211 25.5016 250.312 25.5475 250.422C26.1169 251.625 26.7046 252.828 27.3107 254.013L27.7331 254.803C28.2658 255.831 28.8167 256.85 29.3861 257.86L29.9922 258.907C30.5156 259.825 31.0574 260.744 31.6176 261.662L32.3706 262.856C32.9033 263.701 33.4543 264.536 34.0144 265.363C34.3022 265.797 34.6083 266.229 34.9327 266.657C35.4745 267.447 36.0347 268.228 36.6041 268.999L37.5959 270.34C38.1652 271.093 38.7438 271.836 39.3315 272.571L40.4059 273.921C41.0028 274.646 41.6181 275.363 42.2425 276.07C42.6282 276.52 43.0047 276.988 43.3996 277.401C44.0424 278.117 44.7036 278.825 45.3648 279.532L46.5403 280.78C47.2749 281.533 48.0371 282.277 48.7993 283.021C49.1575 283.361 49.4972 283.719 49.8554 284.059C50.988 285.136 52.1481 286.195 53.3358 287.236C56.9217 290.384 60.7069 293.298 64.6678 295.96C68.7517 298.643 72.9826 301.095 77.3406 303.306C82.9952 306.198 88.8222 308.74 94.7886 310.918C100.991 313.189 107.309 315.133 113.715 316.74C115.019 317.071 116.323 317.383 117.646 317.658C120.272 318.264 122.935 318.834 125.617 319.348C133.787 320.923 142.032 322.081 150.319 322.819C153.12 323.067 155.921 323.278 158.74 323.443C167.18 323.939 175.702 324.049 184.205 323.792C191.285 323.572 198.347 323.094 205.326 322.369C207.778 322.112 210.212 321.827 212.673 321.515L213.196 321.442C215.584 321.129 217.962 320.78 220.332 320.413L220.818 320.34C223.224 319.954 225.618 319.538 228 319.091H228.248C230.696 318.638 233.118 318.151 235.512 317.631L245.962 315.142H246.026C247.624 314.732 249.21 314.3 250.783 313.847C251.701 313.59 252.62 313.315 253.538 313.049C254.668 312.709 255.797 312.378 256.918 312.02L259.076 311.341C260.912 310.735 262.749 310.119 264.585 309.504C265.788 309.082 266.973 308.65 268.158 308.2C270.521 307.319 272.835 306.4 275.1 305.445C281.663 302.708 288.038 299.539 294.183 295.96C295.827 294.986 297.434 293.985 299.032 292.966L300.262 292.167C301.695 291.249 303.118 290.33 304.505 289.32L304.973 288.999C306.516 287.925 308.013 286.814 309.5 285.693L310.547 284.894C311.839 283.89 313.115 282.877 314.377 281.855L314.983 281.359C316.424 280.174 317.839 278.953 319.225 277.686L319.997 276.997C321.227 275.886 322.43 274.766 323.67 273.627L324.23 273.085C325.589 271.763 326.921 270.432 328.225 269.063C328.372 268.926 328.5 268.769 328.647 268.623C329.85 267.365 331.026 266.079 332.183 264.784L332.633 264.27C335.176 261.387 337.601 258.411 339.906 255.372L340.227 254.959C342.554 251.898 344.755 248.736 346.83 245.473L347.004 245.197C349.11 241.916 351.079 238.571 352.909 235.161L352.983 235.032C354.819 231.567 356.54 228.053 358.144 224.49C365.224 208.549 369.567 180.413 371 148.54C368.494 118.827 357.372 90.4911 338.997 67.0066V67.0066Z" fill="#2271AF"/>
<path d="M282.75 6.20782H274.825V16.116H282.75V6.20782Z" fill="white"/>
<path d="M312.037 18.574L315.965 22.5023C316.187 22.7245 316.312 23.0258 316.312 23.3399C316.312 23.6541 316.187 23.9554 315.965 24.1776L309.796 30.3461L304.193 24.7425L310.361 18.5739C310.583 18.3518 310.885 18.227 311.199 18.227C311.513 18.227 311.814 18.3518 312.037 18.574V18.574Z" fill="white"/>
<path d="M253.399 24.7452L247.795 30.3488L241.62 24.1738C241.397 23.9516 241.273 23.6503 241.273 23.3362C241.273 23.022 241.397 22.7207 241.62 22.4985L245.568 18.5507C245.791 18.337 246.09 18.2195 246.399 18.2231C246.709 18.2267 247.005 18.3513 247.223 18.5702L253.392 24.7387L253.399 24.7452Z" fill="white"/>
<path d="M278.792 97.3923C302.147 97.3923 321.08 78.46 321.08 55.1058C321.08 31.7517 302.147 12.8194 278.792 12.8194C255.437 12.8194 236.503 31.7517 236.503 55.1058C236.503 78.46 255.437 97.3923 278.792 97.3923Z" fill="#25F321"/>
<path d="M278.792 89.7982C297.953 89.7982 313.486 74.2659 313.486 55.1058C313.486 35.9458 297.953 20.4135 278.792 20.4135C259.631 20.4135 244.098 35.9458 244.098 55.1058C244.098 74.2659 259.631 89.7982 278.792 89.7982Z" fill="#DDDCEE"/>
<path d="M288.37 0.992065H269.204C267.013 0.992065 265.237 2.76607 265.237 4.95441C265.237 7.14275 267.013 8.91676 269.204 8.91676H288.37C290.561 8.91676 292.337 7.14275 292.337 4.95441C292.337 2.76607 290.561 0.992065 288.37 0.992065Z" fill="#25F321"/>
<path d="M278.791 60.891C281.987 60.891 284.577 58.3009 284.577 55.1059C284.577 51.9108 281.987 49.3207 278.791 49.3207C275.596 49.3207 273.006 51.9108 273.006 55.1059C273.006 58.3009 275.596 60.891 278.791 60.891Z" fill="#27C6E9"/>
<path d="M276.235 53.5982L292.657 37.177C293.283 36.5519 294.13 36.2007 295.014 36.2007C295.899 36.2007 296.746 36.5519 297.372 37.177C297.985 37.8044 298.327 38.6487 298.322 39.5264C298.317 40.4041 297.966 41.2445 297.346 41.8651L280.924 58.2863L276.235 53.5982Z" fill="#27C6E9"/>
<path d="M16.7134 112.516C21.4176 73.7166 38.6356 37.5061 65.7607 9.36661C69.0116 6.01491 72.8501 2.58058 77.5152 2.44284C84.8617 2.22245 89.6278 9.85329 92.8235 16.4649C109.528 51.0286 126.59 87.0433 126.921 125.436C127.104 147.879 121.521 169.936 115.965 191.68C112.503 205.271 108.619 219.568 98.6732 229.44C77.7356 250.165 46.7607 238.88 35.3828 215.353C19.8357 183.196 12.48 148.228 16.7134 112.516Z" fill="#3FDD18"/>
<path d="M106.718 141.35C110.869 107.229 126.02 75.3875 149.879 50.643C152.735 47.6954 156.114 44.6835 160.219 44.5549C166.647 44.3621 170.871 51.0746 173.681 56.8873C188.375 87.2821 203.371 118.953 203.655 152.709C203.821 172.452 198.908 191.837 194.031 210.964C190.983 222.902 187.603 235.491 178.824 244.16C160.458 262.397 133.174 252.47 123.165 231.781C109.464 203.508 102.999 172.755 106.718 141.35Z" fill="#3FDD18"/>
<path d="M73.0706 94.3712H209.716C218.467 94.3712 226.859 97.8472 233.047 104.035C239.235 110.222 242.711 118.614 242.711 127.365V258.31H73.0706C71.4443 258.31 69.8339 257.989 68.3319 257.366C66.8298 256.743 65.4656 255.829 64.3173 254.677C63.1691 253.526 62.2594 252.159 61.6403 250.655C61.0213 249.151 60.7052 247.54 60.71 245.914V106.731C60.71 103.453 62.0123 100.309 64.3303 97.9913C66.6484 95.6734 69.7923 94.3712 73.0706 94.3712Z" fill="#27C6E9"/>
<path d="M63.612 239.1H242.684V257.787C242.684 258.327 242.577 258.862 242.371 259.361C242.164 259.86 241.861 260.314 241.479 260.696C241.097 261.078 240.643 261.381 240.144 261.588C239.645 261.794 239.11 261.901 238.57 261.901H63.612C61.8243 261.901 60.1099 261.191 58.8458 259.927C57.5817 258.663 56.8716 256.948 56.8716 255.161V245.831C56.8716 244.043 57.5817 242.329 58.8458 241.065C60.1099 239.801 61.8243 239.091 63.612 239.091V239.1Z" fill="#CCCCCC"/>
<path d="M242.711 258.31H345.14C347.201 258.31 349.241 257.904 351.144 257.114C353.047 256.325 354.776 255.167 356.231 253.709C357.686 252.25 358.84 250.519 359.625 248.614C360.41 246.709 360.812 244.668 360.807 242.608V194.729C360.806 191.724 359.942 188.782 358.318 186.253L323.349 131.864C321.4 128.831 318.72 126.336 315.556 124.608C312.392 122.88 308.845 121.974 305.239 121.974H242.711V258.31Z" fill="#27C6E9"/>
<path d="M117.682 285.262C132.588 285.262 144.672 273.179 144.672 258.274C144.672 243.369 132.588 231.286 117.682 231.286C102.776 231.286 90.6929 243.369 90.6929 258.274C90.6929 273.179 102.776 285.262 117.682 285.262Z" fill="black"/>
<path d="M292.153 285.262C307.059 285.262 319.143 273.179 319.143 258.274C319.143 243.369 307.059 231.286 292.153 231.286C277.248 231.286 265.164 243.369 265.164 258.274C265.164 273.179 277.248 285.262 292.153 285.262Z" fill="black"/>
<path d="M292.153 271.019C299.193 271.019 304.9 265.313 304.9 258.274C304.9 251.234 299.193 245.528 292.153 245.528C285.114 245.528 279.407 251.234 279.407 258.274C279.407 265.313 285.114 271.019 292.153 271.019Z" fill="#CCCCCC"/>
<path d="M117.728 271.019C124.768 271.019 130.474 265.313 130.474 258.274C130.474 251.234 124.768 245.528 117.728 245.528C110.689 245.528 104.982 251.234 104.982 258.274C104.982 265.313 110.689 271.019 117.728 271.019Z" fill="#CCCCCC"/>
<path d="M270.968 190.129H332.541C333.676 190.129 334.79 189.824 335.766 189.245C336.742 188.666 337.544 187.835 338.088 186.839C338.632 185.843 338.898 184.72 338.857 183.586C338.817 182.452 338.472 181.349 337.858 180.395L315.956 146.327C315.383 145.437 314.596 144.705 313.668 144.198C312.739 143.692 311.697 143.426 310.639 143.425H270.968C269.292 143.425 267.685 144.091 266.5 145.276C265.316 146.46 264.65 148.067 264.65 149.743V183.811C264.65 185.486 265.316 187.093 266.5 188.278C267.685 189.463 269.292 190.129 270.968 190.129V190.129Z" fill="#DDDCEE"/>
<path d="M351.614 217.172H360.797V239.339H340.521V228.255C340.521 225.316 341.689 222.496 343.767 220.418C345.846 218.339 348.665 217.172 351.605 217.172H351.614Z" fill="white"/>
<path d="M80.9866 239.348H60.7101V217.181H69.8933C72.833 217.181 75.6523 218.349 77.7309 220.427C79.8096 222.506 80.9774 225.325 80.9774 228.264V239.348H80.9866Z" fill="#F71919"/>
<path d="M362.046 239.1H337.399C334.68 239.1 332.477 241.304 332.477 244.022V256.979C332.477 259.697 334.68 261.901 337.399 261.901H362.046C364.765 261.901 366.969 259.697 366.969 256.979V244.022C366.969 241.304 364.765 239.1 362.046 239.1Z" fill="#CCCCCC"/>
<path d="M170.733 189.853L166.408 199.752H242.711V189.853H170.733Z" fill="#CCCCCC"/>
<path d="M146.591 199.752L150.916 189.853H60.71V199.752H146.591Z" fill="#CCCCCC"/>
<path d="M183.728 160.092L175.086 179.89H242.711V160.092H183.728Z" fill="#FBDBE9"/>
<path d="M163.91 160.092H60.71V179.89H155.26L163.91 160.092Z" fill="#FBDBE9"/>
<path d="M82.8964 278.228C82.0791 275.519 81.3261 272.672 79.4803 270.542C77.6344 268.411 74.2826 267.236 71.9041 268.77C68.7543 270.808 69.4339 275.537 70.4991 279.137L53.5562 270.643C50.4431 269.073 47.2198 267.484 43.7486 267.199C40.2773 266.915 36.402 268.246 34.7399 271.304C33.0777 274.362 34.097 278.595 36.5765 281.212C39.056 283.829 42.5639 285.161 46.0811 285.904C49.286 286.575 52.7205 286.878 55.4204 288.76C58.1202 290.643 59.5344 294.848 57.257 297.208C54.6765 299.899 49.5064 298.329 47.0361 301.12C45.0158 303.416 46.3841 307.319 48.9554 308.962C51.5267 310.606 54.7775 310.652 57.8539 310.652L77.8824 310.523C81.5557 310.523 93.1907 312.443 95.863 309.605C98.5353 306.768 91.7031 299.183 90.1419 296.152C87.1741 290.416 84.7484 284.415 82.8964 278.228V278.228Z" fill="#51D545"/>
<path d="M86.6983 310.946L74.9623 303.159C73.5389 302.24 72.0236 301.157 71.4727 299.541C70.5543 296.887 72.8777 294.031 75.5867 293.269C78.2957 292.507 81.1517 293.352 83.8516 294.251C92.3674 297.161 100.52 301.041 108.15 305.813C106.993 302.139 105.818 298.283 106.754 294.573C107.691 290.863 111.631 287.631 115.24 288.898C123.624 291.864 127.857 313.012 120.107 318.448C109.987 325.509 95.1285 316.483 86.6983 310.946Z" fill="#3FDD18"/>
<path d="M45.3832 193.269H4.04978C1.81315 193.269 0 195.08 0 197.314C0 199.548 1.81315 201.359 4.04978 201.359H45.3832C47.6198 201.359 49.433 199.548 49.433 197.314C49.433 195.08 47.6198 193.269 45.3832 193.269Z" fill="#27C6E9"/>
<path d="M45.3832 234.068H4.04978C1.81315 234.068 0 235.879 0 238.113C0 240.347 1.81315 242.158 4.04978 242.158H45.3832C47.6198 242.158 49.433 240.347 49.433 238.113C49.433 235.879 47.6198 234.068 45.3832 234.068Z" fill="#27C6E9"/>
<path d="M45.3831 213.664H22.416C20.1794 213.664 18.3662 215.475 18.3662 217.709C18.3662 219.943 20.1794 221.754 22.416 221.754H45.3831C47.6197 221.754 49.4329 219.943 49.4329 217.709C49.4329 215.475 47.6197 213.664 45.3831 213.664Z" fill="#27C6E9"/>
</svg>
