<svg width="16" height="17" viewBox="0 0 16 17" fill="none" xmlns="http://www.w3.org/2000/svg">
<path d="M0.76184 0C0.566886 0 0.371908 0.0922899 0.223145 0.276693C-0.0743816 0.645498 -0.0743816 1.24339 0.223145 1.6122L7.4613 10.5844C7.61026 10.7691 7.80495 10.8611 8 10.8611C8.19505 10.8611 8.38974 10.7691 8.5387 10.5844L15.7769 1.6122C16.0744 1.24339 16.0744 0.645498 15.7769 0.276693C15.4793 -0.0921129 14.997 -0.0921129 14.6995 0.276693L8 8.58116L1.30054 0.276693C1.15177 0.0922899 0.956794 0 0.76184 0ZM0.76184 6.13889C0.566886 6.13889 0.371908 6.23118 0.223145 6.41558C-0.0743816 6.78439 -0.0743816 7.38228 0.223145 7.75108L7.4613 16.7233C7.61026 16.9079 7.80495 17 8 17C8.19505 17 8.38974 16.9079 8.5387 16.7233L15.7769 7.75108C16.0744 7.38228 16.0744 6.78439 15.7769 6.41558C15.4793 6.04678 14.997 6.04678 14.6995 6.41558L8 14.7201L1.30054 6.41558C1.15177 6.23118 0.956794 6.13889 0.76184 6.13889Z" fill="#2196F3"/>
</svg>
